<?xml version='1.0' encoding='utf-8'?>
<svg xmlns="http://www.w3.org/2000/svg" width="720" height="480" viewBox="0 0 720 480"><rect x="0" y="0" width="720" height="480" fill="#ffffff" /><text x="360.0" y="30.0" text-anchor="middle" font-size="20" font-family="sans-serif">Qwen3-0.6B Tokens/sec vs Threads</text><line x1="80" y1="420" x2="680" y2="420" stroke="#000000" stroke-width="2" /><line x1="80" y1="60" x2="80" y2="420" stroke="#000000" stroke-width="2" /><text x="380.0" y="460.0" text-anchor="middle" font-size="16" font-family="sans-serif">Threads</text><text transform="translate(26.666666666666668,240.0) rotate(-90)" text-anchor="middle" font-size="16" font-family="sans-serif">Tokens / sec</text><line x1="80" y1="420.0" x2="680" y2="420.0" stroke="#cccccc" stroke-width="1" stroke-dasharray="4 4" /><text x="70" y="425.0" text-anchor="end" font-size="14" font-family="sans-serif">0.0</text><line x1="80" y1="348.0" x2="680" y2="348.0" stroke="#cccccc" stroke-width="1" stroke-dasharray="4 4" /><text x="70" y="353.0" text-anchor="end" font-size="14" font-family="sans-serif">19.0</text><line x1="80" y1="276.0" x2="680" y2="276.0" stroke="#cccccc" stroke-width="1" stroke-dasharray="4 4" /><text x="70" y="281.0" text-anchor="end" font-size="14" font-family="sans-serif">38.0</text><line x1="80" y1="204.0" x2="680" y2="204.0" stroke="#cccccc" stroke-width="1" stroke-dasharray="4 4" /><text x="70" y="209.0" text-anchor="end" font-size="14" font-family="sans-serif">57.0</text><line x1="80" y1="132.0" x2="680" y2="132.0" stroke="#cccccc" stroke-width="1" stroke-dasharray="4 4" /><text x="70" y="137.0" text-anchor="end" font-size="14" font-family="sans-serif">76.0</text><line x1="80" y1="60.0" x2="680" y2="60.0" stroke="#cccccc" stroke-width="1" stroke-dasharray="4 4" /><text x="70" y="65.0" text-anchor="end" font-size="14" font-family="sans-serif">95.0</text><line x1="80.0" y1="420" x2="80.0" y2="426" stroke="#000000" stroke-width="1" /><text x="80.0" y="444" text-anchor="middle" font-size="14" font-family="sans-serif">1</text><line x1="200.0" y1="420" x2="200.0" y2="426" stroke="#000000" stroke-width="1" /><text x="200.0" y="444" text-anchor="middle" font-size="14" font-family="sans-serif">4</text><line x1="360.0" y1="420" x2="360.0" y2="426" stroke="#000000" stroke-width="1" /><text x="360.0" y="444" text-anchor="middle" font-size="14" font-family="sans-serif">8</text><line x1="680.0" y1="420" x2="680.0" y2="426" stroke="#000000" stroke-width="1" /><text x="680.0" y="444" text-anchor="middle" font-size="14" font-family="sans-serif">16</text><polyline points="80.00,394.21 200.00,317.70 360.00,253.05 680.00,157.72" fill="none" stroke="#1f77b4" stroke-width="3" /><circle cx="80.00" cy="394.21" r="5" fill="#1f77b4" /><circle cx="200.00" cy="317.70" r="5" fill="#1f77b4" /><circle cx="360.00" cy="253.05" r="5" fill="#1f77b4" /><circle cx="680.00" cy="157.72" r="5" fill="#1f77b4" /><polyline points="80.00,393.83 200.00,314.67 360.00,226.88 680.00,122.23" fill="none" stroke="#ff7f0e" stroke-width="3" /><circle cx="80.00" cy="393.83" r="5" fill="#ff7f0e" /><circle cx="200.00" cy="314.67" r="5" fill="#ff7f0e" /><circle cx="360.00" cy="226.88" r="5" fill="#ff7f0e" /><circle cx="680.00" cy="122.23" r="5" fill="#ff7f0e" /><polyline points="80.00,396.59 200.00,357.20 360.00,314.33 680.00,60.00" fill="none" stroke="#2ca02c" stroke-width="3" /><circle cx="80.00" cy="396.59" r="5" fill="#2ca02c" /><circle cx="200.00" cy="357.20" r="5" fill="#2ca02c" /><circle cx="360.00" cy="314.33" r="5" fill="#2ca02c" /><circle cx="680.00" cy="60.00" r="5" fill="#2ca02c" /><rect x="470.0" y="58" width="18" height="18" fill="#1f77b4" /><text x="494.0" y="72" font-size="14" font-family="sans-serif">Eager</text><rect x="470.0" y="82" width="18" height="18" fill="#ff7f0e" /><text x="494.0" y="96" font-size="14" font-family="sans-serif">TorchScript</text><rect x="470.0" y="106" width="18" height="18" fill="#2ca02c" /><text x="494.0" y="120" font-size="14" font-family="sans-serif">torch.compile</text></svg>